<svg width="399" height="197" viewBox="0 0 399 197" preserveAspectRatio= "none" fill="none" xmlns="http://www.w3.org/2000/svg">
<path d="M1 49.2146L0 50V197H399V50.7854L398 51.5705L397 52.3553L396 53.1395L395 53.923L394 54.7054L393 55.4867L392 56.2667L391 57.0451L390 57.8217L389 58.5965L388 59.3691L387 60.1394L386 60.9072L385 61.6723L384 62.4345L383 63.1936L382 63.9496L381 64.702L380 65.4509L379 66.1959L378 66.9369L377 67.6737L376 68.4062L375 69.1342L374 69.8574L373 70.5757L372 71.289L371 71.997L370 72.6995L369 73.3965L368 74.0877L367 74.7729L366 75.4521L365 76.1249L364 76.7913L363 77.4511L362 78.1042L361 78.7503L360 79.3893L359 80.021L358 80.6454L357 81.2621L356 81.8712L355 82.4724L354 83.0656L353 83.6506L352 84.2274L351 84.7956L350 85.3553L349 85.9063L348 86.4484L347 86.9816L346 87.5056L345 88.0203L344 88.5257L343 89.0215L342 89.5078L341 89.9842L340 90.4509L339 90.9075L338 91.354L337 91.7904L336 92.2164L335 92.632L334 93.0371L333 93.4316L332 93.8153L331 94.1883L330 94.5503L329 94.9014L328 95.2413L327 95.5702L326 95.8877L325 96.194L324 96.4888L323 96.7722L322 97.044L321 97.3043L320 97.5528L319 97.7897L318 98.0147L317 98.2279L316 98.4292L315 98.6185L314 98.7958L313 98.9611L312 99.1144L311 99.2555L310 99.3844L309 99.5012L308 99.6057L307 99.698L306 99.7781L305 99.8459L304 99.9013L303 99.9445L302 99.9753L301 99.9938L300 100L299 99.9938L298 99.9753L297 99.9445L296 99.9013L295 99.8459L294 99.7781L293 99.698L292 99.6057L291 99.5012L290 99.3844L289 99.2555L288 99.1144L287 98.9611L286 98.7958L285 98.6185L284 98.4292L283 98.2279L282 98.0147L281 97.7897L280 97.5528L279 97.3043L278 97.044L277 96.7722L276 96.4888L275 96.194L274 95.8877L273 95.5702L272 95.2413L271 94.9014L270 94.5503L269 94.1883L268 93.8153L267 93.4316L266 93.0371L265 92.632L264 92.2164L263 91.7904L262 91.354L261 90.9075L260 90.4509L259 89.9842L258 89.5078L257 89.0215L256 88.5257L255 88.0203L254 87.5056L253 86.9816L252 86.4484L251 85.9063L250 85.3553L249 84.7956L248 84.2274L247 83.6506L246 83.0656L245 82.4724L244 81.8712L243 81.2621L242 80.6454L241 80.021L240 79.3893L239 78.7503L238 78.1042L237 77.4511L236 76.7913L235 76.1249L234 75.4521L233 74.7729L232 74.0877L231 73.3965L230 72.6995L229 71.997L228 71.289L227 70.5757L226 69.8574L225 69.1342L224 68.4062L223 67.6737L222 66.9369L221 66.1959L220 65.4509L219 64.702L218 63.9496L217 63.1936L216 62.4345L215 61.6723L214 60.9072L213 60.1394L212 59.3691L211 58.5965L210 57.8217L209 57.0451L208 56.2667L207 55.4867L206 54.7054L205 53.923L204 53.1395L203 52.3553L202 51.5705L201 50.7854L200.503 50.3947L200 50L199 49.2146L198 48.4295L197 47.6447L196 46.8605L195 46.077L194 45.2946L193 44.5133L192 43.7333L191 42.9549L190 42.1783L189 41.4035L188 40.6309L187 39.8606L186 39.0928L185 38.3277L184 37.5655L183 36.8064L182 36.0504L181 35.298L180 34.5491L179 33.8041L178 33.0631L177 32.3263L176 31.5938L175 30.8658L174 30.1426L173 29.4243L172 28.711L171 28.003L170 27.3005L169 26.6035L168 25.9123L167 25.2271L166 24.5479L165 23.8751L164 23.2087L163 22.5489L162 21.8958L161 21.2497L160 20.6107L159 19.979L158 19.3546L157 18.7379L156 18.1288L155 17.5276L154 16.9344L153 16.3494L152 15.7726L151 15.2044L150 14.6447L149 14.0937L148 13.5516L147 13.0184L146 12.4944L145 11.9797L144 11.4743L143 10.9785L142 10.4922L141 10.0158L140 9.54915L139 9.09251L138 8.64597L137 8.20963L136 7.7836L135 7.36799L134 6.9629L133 6.56842L132 6.18467L131 5.81172L130 5.44967L129 5.09862L128 4.75865L127 4.42984L126 4.11227L125 3.80602L124 3.51118L123 3.2278L122 2.95596L121 2.69573L120 2.44717L119 2.21035L118 1.98532L117 1.77213L116 1.57084L115 1.3815L114 1.20416L113 1.03886L112 0.885639L111 0.744534L110 0.615582L109 0.498817L108 0.394264L107 0.301952L106 0.221901L105 0.154133L104 0.0986633L103 0.0555077L102 0.0246735L101 0.00616837L100 0L99 0.00616837L98 0.0246735L97 0.0555077L96 0.0986633L95 0.154133L94 0.221901L93 0.301952L92 0.394264L91 0.498817L90 0.615582L89 0.744534L88 0.885639L87 1.03886L86 1.20416L85 1.3815L84 1.57084L83 1.77213L82 1.98532L81 2.21035L80 2.44717L79 2.69573L78 2.95596L77 3.2278L76 3.51118L75 3.80602L74 4.11227L73 4.42984L72 4.75865L71 5.09862L70 5.44967L69 5.81172L68 6.18467L67 6.56842L66 6.9629L65 7.36799L64 7.7836L63 8.20963L62 8.64597L61 9.09251L60 9.54915L59 10.0158L58 10.4922L57 10.9785L56 11.4743L55 11.9797L54 12.4944L53 13.0184L52 13.5516L51 14.0937L50 14.6447L49 15.2044L48 15.7726L47 16.3494L46 16.9344L45 17.5276L44 18.1288L43 18.7379L42 19.3546L41 19.979L40 20.6107L39 21.2497L38 21.8958L37 22.5489L36 23.2087L35 23.8751L34 24.5479L33 25.2271L32 25.9123L31 26.6035L30 27.3005L29 28.003L28 28.711L27 29.4243L26 30.1426L25 30.8658L24 31.5938L23 32.3263L22 33.0631L21 33.8041L20 34.5491L19 35.298L18 36.0504L17 36.8064L16 37.5655L15 38.3277L14 39.0928L13 39.8606L12 40.6309L11 41.4035L10 42.1783L9 42.9549L8 43.7333L7 44.5133L6 45.2946L5 46.077L4 46.8605L3 47.6447L2 48.4295L1 49.2146Z" fill="white"/>
</svg>
